<svg width="16" height="16" viewBox="0 0 16 16" fill="none" xmlns="http://www.w3.org/2000/svg">
<path d="M9.61619 14.5731C9.48379 14.6061 9.3504 14.635 9.21622 14.6597C8.86719 14.7247 8.63644 15.0603 8.701 15.4097C8.73148 15.5749 8.82556 15.7215 8.96301 15.8181C9.03303 15.8676 9.11224 15.9025 9.19598 15.9208C9.27972 15.9391 9.36628 15.9404 9.45055 15.9247C9.61039 15.8951 9.76929 15.8606 9.92704 15.8213C10.2717 15.7355 10.4817 15.3863 10.3957 15.0418C10.3099 14.697 9.96105 14.4872 9.61619 14.5731ZM14.3727 5.95168C14.4159 6.08236 14.4999 6.19569 14.6124 6.27492C14.7735 6.38838 14.9843 6.42656 15.1855 6.36004C15.5228 6.24806 15.7055 5.88438 15.5939 5.54728C15.5428 5.39298 15.487 5.24026 15.4266 5.08936C15.2947 4.75953 14.9205 4.59894 14.5905 4.73088C14.2609 4.86274 14.1002 5.23698 14.2322 5.56692C14.283 5.69371 14.3298 5.82203 14.3727 5.95168ZM11.7063 13.6547C11.5923 13.73 11.4761 13.8018 11.3577 13.8701C11.0499 14.0476 10.9445 14.441 11.122 14.7487C11.1685 14.8295 11.2321 14.8993 11.3083 14.9531C11.5067 15.0927 11.7762 15.1136 12.0005 14.9843C12.1414 14.9031 12.2797 14.8176 12.4154 14.728C12.7116 14.5323 12.7932 14.1332 12.5973 13.8368C12.4015 13.5403 12.0026 13.4589 11.7063 13.6547ZM15.9939 7.74814C15.9799 7.39313 15.6808 7.11681 15.3257 7.13067C14.9711 7.14467 14.6945 7.44379 14.7085 7.79867C14.7138 7.93435 14.7152 8.07206 14.712 8.20761C14.7071 8.43024 14.8159 8.62869 14.9852 8.74797C15.0895 8.8215 15.2134 8.86222 15.341 8.86494C15.696 8.87282 15.9902 8.59124 15.9981 8.23605C16.0016 8.07409 16.0003 7.91 15.9939 7.74814ZM14.2677 11.9627C13.9831 11.7491 13.5803 11.8071 13.3671 12.0912C13.2851 12.2004 13.1999 12.307 13.1114 12.411C12.8813 12.6813 12.9138 13.0874 13.1842 13.3177C13.1996 13.3307 13.2152 13.3427 13.2313 13.354C13.5001 13.5435 13.8736 13.5 14.0909 13.245C14.1965 13.1208 14.2983 12.9935 14.3961 12.8631C14.6093 12.579 14.5516 12.1759 14.2677 11.9627ZM15.2132 9.63753C14.8743 9.53125 14.5133 9.71994 14.4071 10.0589C14.3662 10.1892 14.3214 10.3183 14.2728 10.4459C14.166 10.7264 14.2683 11.0351 14.5029 11.2005C14.5468 11.2314 14.5945 11.2568 14.6448 11.2758C14.9766 11.4024 15.3483 11.2359 15.4748 10.9039C15.5325 10.7521 15.5858 10.5986 15.6346 10.4437C15.7407 10.1047 15.5521 9.74381 15.2132 9.63753ZM6.80993 14.6655C6.23947 14.5635 5.68483 14.3872 5.16012 14.1412C5.15393 14.138 5.1484 14.1343 5.1419 14.1314C5.01825 14.0732 4.89633 14.0115 4.77629 13.9463L4.77447 13.9452C4.55398 13.8237 4.34035 13.6902 4.13454 13.5453C1.10884 11.4139 0.381345 7.21824 2.51287 4.19258C2.97636 3.5349 3.53725 2.98622 4.16257 2.55134C4.17027 2.54597 4.17797 2.54064 4.18561 2.53524C6.38912 1.01696 9.38114 0.914642 11.7209 2.47481L11.2184 3.2009C11.0787 3.403 11.1646 3.55027 11.4092 3.52826L13.5921 3.33284C13.837 3.31082 13.9834 3.09899 13.9175 2.8625L13.3314 0.750514C13.2657 0.513747 13.0977 0.485407 12.9579 0.687471L12.4542 1.41528C10.7371 0.262638 8.67765 -0.17688 6.63352 0.177582C6.4289 0.213086 6.22572 0.256455 6.02444 0.307591L6.02042 0.308313C6.01268 0.310205 6.00484 0.312716 5.9973 0.314814C4.23462 0.767471 2.6967 1.79554 1.5993 3.26236C1.59005 3.27333 1.58052 3.28407 1.57178 3.296C1.53512 3.34546 1.49906 3.39537 1.46362 3.44572C1.4054 3.5284 1.34877 3.6122 1.29378 3.69707C1.28693 3.70725 1.28171 3.7176 1.27572 3.72788C0.370133 5.13119 -0.0666682 6.75354 0.00824147 8.4052C0.00841344 8.41063 0.0081039 8.4161 0.00824147 8.42168C0.015674 8.58401 0.0281535 8.74607 0.0456619 8.90763C0.0465906 8.91801 0.048895 8.92785 0.050649 8.93824C0.0685323 9.10107 0.0914496 9.26332 0.119368 9.42474C0.40635 11.0804 1.18736 12.5702 2.35768 13.7295C2.3604 13.7322 2.36322 13.7351 2.36597 13.738L2.36893 13.7406C2.68636 14.0537 3.02908 14.3401 3.39362 14.5969C4.35734 15.276 5.43046 15.7249 6.58293 15.9317C6.93261 15.9945 7.26664 15.7617 7.32938 15.4122C7.39208 15.0625 7.15951 14.7282 6.80993 14.6655Z" fill="white"/>
<path d="M7.60526 2.86146C7.31763 2.86146 7.08464 3.09465 7.08464 3.38187V8.56663L11.8265 11.0179C11.9002 11.0561 11.982 11.0761 12.065 11.076C12.2533 11.076 12.4352 10.9735 12.5277 10.7945C12.6596 10.5391 12.5598 10.2253 12.3044 10.0934L8.1253 7.93289V3.38187C8.12526 3.09465 7.89255 2.86146 7.60526 2.86146Z" fill="white"/>
</svg>
